#!OML:ASF H:\ManfredObstacles\Project 1\Capture day 2\Session 1\male.ASF
:FULLY-SPECIFIED
:DEGREES
266
root 1.72749 9.38746 9.02076 -170.15 -4.71345 186.355
lowerback 48.4237 4.26581 0.9483
upperback 18.4467 -3.6606 3.94641
thorax 0.463787 -5.46002 5.00315
lowerneck -28.3599 1.82214 -1.58138
upperneck 23.9771 2.82274 2.12062
head 12.6065 1.44744 1.61702
rclavicle 3.02153e-014 -3.57812e-015
rhumerus 26.9644 20.017 -64.1768
rradius 26.4288
rwrist 30.1551
rhand -11.7273 1.36256
rfingers 7.12502
rthumb 14.3198 -28.1236
lclavicle 3.02153e-014 -3.57812e-015
lhumerus 18.5281 1.52424 78.8967
lradius 16.5921
lwrist -54.6321
lhand -22.8036 17.2499
lfingers 7.12502
lthumb 3.63273 47.1987
rfemur -105.046 3.05093 29.0747
rtibia 107.659
rfoot -19.1323 -28.6841
rtoes -26.8011
lfemur -75.9487 5.21981 -25.828
ltibia 133.18
lfoot -16.0109 41.9974
ltoes -11.3259
267
root 1.723 9.31962 8.91392 -170.632 -4.58957 186.451
lowerback 48.449 3.81542 1.30876
upperback 18.2661 -3.97107 3.50858
thorax 0.25801 -5.5198 4.48923
lowerneck -28.4908 1.97913 -1.4852
upperneck 24.5197 2.9251 2.51986
head 12.8409 1.56441 1.79211
rclavicle -7.95139e-015 -3.29983e-014
rhumerus 26.4199 20.5335 -64.1189
rradius 27.3362
rwrist 29.4244
rhand -11.7834 1.31217
rfingers 7.12502
rthumb 14.2657 -28.1778
lclavicle -7.95139e-015 -3.29983e-014
lhumerus 16.8297 -0.295721 77.5343
lradius 17.8513
lwrist -52.3379
lhand -21.7206 16.9064
lfingers 7.12502
lthumb 4.67857 46.8348
rfemur -105.326 3.12051 28.9963
rtibia 105.348
rfoot -18.0204 -28.2772
rtoes -26.9405
lfemur -75.2983 5.8742 -25.9279
ltibia 134.182
lfoot -15.5318 42.0567
ltoes -11.0468
268
root 1.72122 9.25262 8.80599 -171.048 -4.49922 186.501
lowerback 48.2179 3.61032 1.50509
upperback 18.232 -4.09436 3.34341
thorax 0.250047 -5.54176 4.25736
lowerneck -28.6536 2.03128 -1.45869
upperneck 24.9119 2.93724 2.77597
head 13.0266 1.61297 1.90472
rclavicle -3.18055e-015 2.14687e-014
rhumerus 26.0026 20.8562 -63.6893
rradius 28.3493
rwrist 28.5966
rhand -12.0606 1.04659
rfingers 7.12502
rthumb 13.9986 -28.4621
lclavicle -3.18055e-015 2.14687e-014
lhumerus 15.3809 -1.96744 76.6975
lradius 19.2708
lwrist -50.2519
lhand -20.4703 16.4881
lfingers 7.12502
lthumb 5.88578 46.3864
rfemur -105.561 3.1691 28.8967
rtibia 103.183
rfoot -17.0019 -27.7716
rtoes -27.0612
lfemur -74.7114 6.55611 -26.0229
ltibia 135.152
lfoot -14.9004 42.0368
ltoes -10.8207
269
root 1.722 9.18697 8.69674 -171.421 -4.44561 186.512
lowerback 46.8966 3.59136 1.62256
upperback 19.1796 -4.13188 3.24896
thorax 0.479568 -5.52942 4.11626
lowerneck -28.926 2.01302 -1.37521
upperneck 25.2078 2.82922 2.97449
head 13.2014 1.60531 1.96308
rclavicle -3.18055e-015 2.3059e-014
rhumerus 25.6503 20.8288 -63.2208
rradius 29.4113
rwrist 27.7522
rhand -12.5175 0.611782
rfingers 7.12502
rthumb 13.5583 -28.9268
lclavicle -3.18055e-015 2.3059e-014
lhumerus 14.1736 -3.67911 76.0453
lradius 20.8835
lwrist -48.2327
lhand -19.0221 16.0381
lfingers 7.12502
lthumb 7.28385 45.8927
rfemur -105.731 3.18916 28.7815
rtibia 101.192
rfoot -16.1808 -27.1753
rtoes -27.0899
lfemur -74.1632 7.26333 -26.0813
ltibia 136.088
lfoot -14.137 41.9042
ltoes -10.6929
270
root 1.72539 9.12341 8.58626 -171.773 -4.42623 186.496
lowerback 46.5562 3.55262 1.83787
upperback 19.2781 -4.10246 3.22077
thorax 0.664605 -5.5057 3.94081
lowerneck -29.3734 1.96464 -1.23413
upperneck 25.4854 2.66332 3.10477
head 13.4081 1.5671 1.97701
rclavicle 9.54166e-015 -2.90226e-014
rhumerus 25.3611 20.5562 -62.8054
rradius 30.5009
rwrist 26.8978
rhand -13.0494 0.0473395
rfingers 7.12502
rthumb 13.0456 -29.5247
lclavicle 9.54166e-015 -2.90226e-014
lhumerus 13.1191 -5.26056 75.5029
lradius 22.6615
lwrist -46.3149
lhand -17.39 15.5688
lfingers 7.12502
lthumb 8.85903 45.3629
rfemur -105.817 3.18473 28.6588
rtibia 99.3834
rfoot -15.5326 -26.559
rtoes -27.0571
lfemur -73.6228 8.0289 -26.0707
ltibia 136.989
lfoot -13.3184 41.6211
ltoes -10.6407
271
root 1.73113 9.062 8.47395 -172.106 -4.45134 186.451
lowerback 46.0315 3.75135 1.87146
upperback 19.4938 -3.90653 3.4847
thorax 1.03559 -5.45824 4.08986
lowerneck -29.7454 1.83738 -1.16158
upperneck 25.5508 2.45622 3.04225
head 13.5159 1.47253 1.90858
rclavicle -2.06736e-014 1.47101e-014
rhumerus 25.1956 20.0539 -62.0446
rradius 31.6634
rwrist 25.9139
rhand -13.6469 -0.592769
rfingers 7.12502
rthumb 12.4696 -30.2008
lclavicle -2.06736e-014 1.47101e-014
lhumerus 12.3104 -6.47401 75.4575
lradius 24.5108
lwrist -44.8181
lhand -15.6322 15.0997
lfingers 7.12502
lthumb 10.5549 44.8147
rfemur -105.825 3.14514 28.5189
rtibia 97.7739
rfoot -15.0646 -25.9463
rtoes -26.8997
lfemur -73.0762 8.82603 -25.9825
ltibia 137.849
lfoot -12.5158 41.1875
ltoes -10.6197
272
root 1.73939 9.00199 8.35941 -172.419 -4.52385 186.372
lowerback 45.5226 3.97067 1.94407
upperback 19.7339 -3.67955 3.75826
thorax 1.43093 -5.39523 4.21901
lowerneck -30.2041 1.67708 -1.02694
upperneck 25.5565 2.17619 2.94571
head 13.6187 1.34682 1.8006
rclavicle 1.74931e-014 2.06736e-014
rhumerus 25.0396 19.2651 -61.4127
rradius 32.8463
rwrist 24.8489
rhand -14.187 -1.26186
rfingers 7.12502
rthumb 11.9488 -30.9008
lclavicle 1.74931e-014 2.06736e-014
lhumerus 11.6714 -7.55715 75.4583
lradius 26.4225
lwrist -43.5232
lhand -13.7858 14.6993
lfingers 7.12502
lthumb 12.3356 44.3154
rfemur -105.771 3.07044 28.3458
rtibia 96.3709
rfoot -14.5935 -25.3922
rtoes -26.7603
lfemur -72.5216 9.63777 -25.8342
ltibia 138.668
lfoot -11.7714 40.6415
ltoes -10.6487
